# xmcd
#
# Track frame offsets: 
#        150
#        14700
#        34650
#        54900
#        70425
#        86625
#        101175
#        113925
#        129975
#        143175
#        156675
#        171675
#        184875
#        200025
#        213525
#        227850
#        240900
#        252975
#        266400
#        277800
#
# Disc length: 3910 seconds
#
# Revision: 0
# Processed by: cddbd v1.5.2PL0 Copyright (c) Steve Scherf et al.
# Submitted via: ExactAudioCopy v1.1
#
DISCID=340f4414
DTITLE=Greenhorns - Mirek Hoffmann 80
DYEAR=2015
DGENRE=Country
TTITLE0=Za Modrou horou
TTITLE1=Mexicka holka
TTITLE2=Adieu, amore
TTITLE3=Moje Australie
TTITLE4=Vrat se, chlapce, kde jsi zil a rost
TTITLE5=Muz, ktery to risknul
TTITLE6=Ja a muj pes
TTITLE7=Knez z Clevelandu
TTITLE8=V busi je domov muj
TTITLE9=Bohatej farmar
TTITLE10=Mantl John
TTITLE11=Chvili jsem postal
TTITLE12=Buh mi silu dej
TTITLE13=Do mraku pisu ti
TTITLE14=Ou, to se nekdy stava
TTITLE15=Vem si chlapa od koni
TTITLE16=Tak to chodi ve svete
TTITLE17=Byl cejtit krchovem
TTITLE18=Andel strazny
TTITLE19=Denverskej sal
EXTD=
EXTT0=
EXTT1=
EXTT2=
EXTT3=
EXTT4=
EXTT5=
EXTT6=
EXTT7=
EXTT8=
EXTT9=
EXTT10=
EXTT11=
EXTT12=
EXTT13=
EXTT14=
EXTT15=
EXTT16=
EXTT17=
EXTT18=
EXTT19=
PLAYORDER=
